<svg width="28" height="26" viewBox="0 0 28 26" fill="none" xmlns="http://www.w3.org/2000/svg">
<path d="M14.024 5.47295L9.74349 1L8.15631 3.40481L12.1002 7.54108L8.82966 11.004C8.82966 11.004 7.29058 9.41683 6.32866 8.40681C6.19124 8.26253 5.99334 8.14409 5.7515 8.02204C5.50222 7.89624 5.31864 7.78156 5.07816 7.78156H2L7.002 13.1202L2.0481 18.3146H5.31864C5.51745 18.3146 5.71393 18.1989 5.94389 18.0741C6.14542 17.9648 6.26819 17.9049 6.42485 17.7375C11.3307 12.495 19.7956 3.501 19.7956 3.501L18.2084 1L14.024 5.47295Z" fill="white" stroke="white"/>
<path d="M13.976 20.5271L18.2565 25L19.8437 22.5952L15.8998 18.4589L19.1703 14.996C19.1703 14.996 20.7094 16.5832 21.6713 17.5932C21.8088 17.7375 22.0067 17.8559 22.2485 17.978C22.4978 18.1038 22.6814 18.2184 22.9218 18.2184L26 18.2184L20.998 12.8798L25.9519 7.68537L22.6814 7.68537C22.4826 7.68537 22.2861 7.80111 22.0561 7.92585C21.8546 8.03517 21.7318 8.09512 21.5752 8.26253C16.6693 13.505 8.20441 22.499 8.20441 22.499L9.79158 25L13.976 20.5271Z" fill="white" stroke="white"/>
</svg>
