<svg width="19" height="20" viewBox="0 0 19 20" fill="none" xmlns="http://www.w3.org/2000/svg">
<g clip-path="url(#clip0_303_1832)">
<path d="M5.1527 9.05887C6.2727 11.26 8.07325 13.0605 10.2783 14.1805L11.9894 12.4655C12.2033 12.2516 12.5105 12.1894 12.7788 12.275C13.6499 12.5628 14.5871 12.7183 15.5555 12.7183C15.9871 12.7183 16.3333 13.0644 16.3333 13.4961V16.2183C16.3333 16.65 15.9871 16.9961 15.5555 16.9961C8.25214 16.9961 2.33325 11.0772 2.33325 3.77387C2.33325 3.3422 2.68325 2.99609 3.11103 2.99609H5.83325C6.26492 2.99609 6.61103 3.3422 6.61103 3.77387C6.61103 4.7422 6.76659 5.67943 7.05436 6.55054C7.13992 6.81887 7.0777 7.12609 6.86381 7.33998L5.1527 9.05887V9.05887Z" fill="black"/>
</g>
<defs>
<clipPath id="clip0_303_1832">
<rect width="18.6667" height="18.6667" fill="white" transform="translate(0 0.664062)"/>
</clipPath>
</defs>
</svg>
