<svg width="15" height="15" viewBox="0 0 15 15" fill="none" xmlns="http://www.w3.org/2000/svg">
<path d="M7.43943 0.6875C5.39876 0.6875 3.73854 2.34772 3.73854 4.38839C3.73854 6.42906 5.39876 8.08927 7.43943 8.08927C9.4801 8.08927 11.1403 6.42906 11.1403 4.38839C11.1403 2.34772 9.4801 0.6875 7.43943 0.6875ZM7.43943 6.60892C6.21518 6.60892 5.2189 5.61264 5.2189 4.38839C5.2189 3.16413 6.21518 2.16785 7.43943 2.16785C8.66368 2.16785 9.65996 3.16413 9.65996 4.38839C9.65996 5.61264 8.66368 6.60892 7.43943 6.60892ZM14.101 14.7509V14.0107C14.101 11.1543 11.7761 8.82945 8.91978 8.82945H5.95907C3.10199 8.82945 0.777832 11.1543 0.777832 14.0107V14.7509H2.25819V14.0107C2.25819 11.97 3.91841 10.3098 5.95907 10.3098H8.91978C10.9605 10.3098 12.6207 11.97 12.6207 14.0107V14.7509H14.101Z" fill="black"/>
</svg>
