<svg width="19" height="19" viewBox="0 0 19 19" fill="none" xmlns="http://www.w3.org/2000/svg">
<path d="M15.2021 4.88845H12.9218V3.3329C12.9218 2.46957 12.2453 1.77734 11.4016 1.77734H6.84097C5.99726 1.77734 5.32077 2.46957 5.32077 3.3329V4.88845H3.04047C2.19675 4.88845 1.52026 5.58068 1.52026 6.44401V14.9996C1.52026 15.8629 2.19675 16.5551 3.04047 16.5551H15.2021C16.0458 16.5551 16.7223 15.8629 16.7223 14.9996V6.44401C16.7223 5.58068 16.0458 4.88845 15.2021 4.88845ZM6.84097 3.3329H11.4016V4.88845H6.84097V3.3329ZM15.2021 14.9996H3.04047V13.444H15.2021V14.9996ZM15.2021 11.1107H3.04047V6.44401H5.32077V7.99957H6.84097V6.44401H11.4016V7.99957H12.9218V6.44401H15.2021V11.1107Z" fill="black" fill-opacity="0.87"/>
</svg>
